<?xml version="1.0" encoding="utf-8"?>
<!-- Generator: Adobe Illustrator 18.1.1, SVG Export Plug-In . SVG Version: 6.00 Build 0)  -->
<svg version="1.1" id="Layer_1" xmlns="http://www.w3.org/2000/svg" xmlns:xlink="http://www.w3.org/1999/xlink" x="0px" y="0px"
	 viewBox="0 0 26 26" enable-background="new 0 0 26 26" xml:space="preserve">
<rect x="-9.7" y="1.7" fill="#879CD6" width="1.8" height="1.3"/>
<rect x="-6.6" y="2" fill="#FF4656" width="1.8" height="1.6"/>
<g>
	<g>
		<path fill="#FF4656" d="M0.8,23h3.8v-7.6H0.8V23z M1.5,16.2h2.3v6.1H1.5V16.2z M1.5,16.2"/>
		<g>
			<path fill="#FF4656" d="M24.9,20.1c-0.1-0.3-1.5-3-3-2.7c-0.4,0.1-0.8,0.5-1.3,1c-0.9,0.9-2.1,2.2-4.1,2.2c-1.2,0-2.5-0.5-4-1.4
				l3,0c0,0,0,0,0.1,0c0.8,0,1.3-0.4,1.3-1.1v-1.3l0-0.1c-0.1-0.4-0.5-1.3-1.4-1.3H5.3v7.3l0.3,0.1C5.8,23,12.3,25,14.7,25
				c0,0,0.1,0,0.2,0c1,0,6.3-0.2,10-4.5l0.2-0.2L24.9,20.1z M14.9,24.2c-0.1,0-0.2,0-0.2,0c-2,0-7.4-1.6-8.7-2v-6h9.5
				c0.4,0,0.6,0.5,0.6,0.6v1.2c0,0.3-0.3,0.3-0.6,0.3l-5.5,0l0.9,0.7c2,1.5,3.8,2.3,5.4,2.3c2.3,0,3.7-1.5,4.6-2.5
				c0.3-0.4,0.7-0.8,0.9-0.8c0.7-0.1,1.6,1.1,2.1,2C20.7,24,15.8,24.2,14.9,24.2L14.9,24.2z M14.9,24.2"/>
		</g>
	</g>
	<g>
		<path fill="#FF4656" d="M14.3,13.7L8.4,8.1C7.5,7.3,7,6.1,7,4.9c0-2.3,1.9-4.1,4.1-4.1c1.2,0,2.3,0.5,3.1,1.4
			c0.8-0.9,1.9-1.4,3.1-1.4c2.3,0,4.1,1.9,4.1,4.1c0,1.2-0.5,2.3-1.4,3.1L14.3,13.7z M11.1,1.8C9.4,1.8,8,3.2,8,4.9
			c0,0.9,0.4,1.8,1.1,2.4l5.2,5l5.2-5c0.7-0.6,1.1-1.5,1.1-2.4c0-1.7-1.4-3.1-3.1-3.1c-1.1,0-2.1,0.6-2.7,1.5L14.3,4l-0.4-0.7
			C13.2,2.4,12.2,1.8,11.1,1.8z"/>
	</g>
</g>
</svg>
