<?xml version="1.0" encoding="utf-8"?>
<!-- Generator: Adobe Illustrator 18.1.1, SVG Export Plug-In . SVG Version: 6.00 Build 0)  -->
<svg version="1.1" id="Layer_1" xmlns="http://www.w3.org/2000/svg" xmlns:xlink="http://www.w3.org/1999/xlink" x="0px" y="0px"
	 viewBox="0 0 26 26" enable-background="new 0 0 26 26" xml:space="preserve">
<g>
	<rect x="13" y="18" fill="none" width="3" height="3"/>
	<rect x="9" y="14" fill="none" width="3" height="3"/>
	<rect x="5" y="14" fill="none" width="3" height="3"/>
	<rect x="13" y="10" fill="none" width="3" height="3"/>
	<rect x="9" y="18" fill="none" width="3" height="3"/>
	<rect x="9" y="10" fill="none" width="3" height="3"/>
	<rect x="18" y="2" fill="none" width="2" height="2"/>
	<rect x="17" y="10" fill="none" width="3" height="3"/>
	<rect x="5" y="2" fill="none" width="2" height="2"/>
	<path fill="none" d="M2,24h21V7H2V24z M4,9h17v13H4V9z"/>
	<rect x="17" y="18" fill="none" width="3" height="3"/>
	<polygon fill="none" points="21,5 17,5 17,3 8,3 8,5 4,5 4,3 2,3 2,6 23,6 23,3 21,3 	"/>
	<rect x="13" y="14" fill="none" width="3" height="3"/>
	<rect x="5" y="18" fill="none" width="3" height="3"/>
	<rect x="5" y="10" fill="none" width="3" height="3"/>
	<rect x="17" y="14" fill="none" width="3" height="3"/>
	<path fill="red" d="M21,9H4v13h17V9z M20,13h-3v-3h3V13z M9,14h3v3H9V14z M8,17H5v-3h3V17z M12,13H9v-3h3V13z M13,10h3v3h-3V10
		z M12,18v3H9v-3H12z M13,18h3v3h-3V18z M13,17v-3h3v3H13z M17,14h3v3h-3V14z M8,10v3H5v-3H8z M5,18h3v3H5V18z M17,21v-3h3v3H17z"/>
	<path fill="red" d="M21,2V0h-4v2H8V0H4v2H1v23h23V2H21z M18,1h2v3h-2V1z M5,1h2v3H5V1z M23,24H2V7h21V24z M23,6H2V3h2v2h4V3h9
		v2h4V3h2V6z"/>
</g>
</svg>
