<?xml version="1.0" encoding="utf-8"?>
<!-- Generator: Adobe Illustrator 18.1.1, SVG Export Plug-In . SVG Version: 6.00 Build 0)  -->
<svg version="1.1" id="Layer_1" xmlns="http://www.w3.org/2000/svg" xmlns:xlink="http://www.w3.org/1999/xlink" x="0px" y="0px"
	 viewBox="0 0 26 26" enable-background="new 0 0 26 26" xml:space="preserve">
<g>
	<path fill="none" stroke="#879CD6" stroke-miterlimit="10" d="M10.8,20.5c0,0,0.1-4.6,4.4-6.2l2.3,2.2l2.4-2.2c0,0,4.1,2.1,4.5,6.1
		H10.8z"/>
	<circle fill="none" stroke="#879CD6" stroke-miterlimit="10" cx="17.6" cy="9.4" r="3.6"/>
	<circle fill="none" stroke="#879CD6" stroke-miterlimit="10" cx="7.5" cy="8.1" r="3"/>
	<path fill="#879CD6" d="M9.5,17H2.8c0.2-1,0.9-2.6,2.4-3.4L6.7,15l0.7,0.6l0.7-0.7l1.5-1.2c0.3,0.2,0.7,0.5,1.1,0.8
		c0.2-0.3,0.5-0.5,0.7-0.7c-1-0.9-1.9-1.4-1.9-1.4l-2.1,1.9l-2-1.9C1.7,13.8,1.6,18,1.6,18h7.7C9.4,17.7,9.4,17.3,9.5,17z"/>
</g>
</svg>
