<?xml version="1.0" encoding="utf-8"?>
<!-- Generator: Adobe Illustrator 18.1.1, SVG Export Plug-In . SVG Version: 6.00 Build 0)  -->
<svg version="1.1" id="Layer_1" xmlns="http://www.w3.org/2000/svg" xmlns:xlink="http://www.w3.org/1999/xlink" x="0px" y="0px"
	 viewBox="0 0 22 22" enable-background="new 0 0 22 22" xml:space="preserve">
<g>
	<path fill="none" stroke="#888888" stroke-miterlimit="10" d="M14.4,8.7c0,1.9-1.5,3.4-3.4,3.4c-1.9,0-3.4-1.5-3.4-3.4
		c0-1.9,1.5-3.4,3.4-3.4C12.9,5.3,14.4,6.8,14.4,8.7L14.4,8.7z M14.4,8.7"/>
	<path fill="none" stroke="#888888" stroke-miterlimit="10" d="M11,21.2c0,0,7.4-8.4,7.4-12.6c0-4.1-3.3-7.4-7.4-7.4
		c-4.1,0-7.4,3.3-7.4,7.4C3.6,12.8,11,21.2,11,21.2L11,21.2z M11,3.5"/>
</g>
</svg>
