<?xml version="1.0" encoding="utf-8"?>
<!-- Generator: Adobe Illustrator 18.1.1, SVG Export Plug-In . SVG Version: 6.00 Build 0)  -->
<svg version="1.1" id="Layer_1" xmlns="http://www.w3.org/2000/svg" xmlns:xlink="http://www.w3.org/1999/xlink" x="0px" y="0px"
	 viewBox="0 0 26 26" enable-background="new 0 0 26 26" xml:space="preserve">

<g>
	<path fill="red" d="M12.6,25.1C5.9,25.1,0.5,19.7,0.5,13c0-6.7,5.4-12.1,12.1-12.1S24.7,6.3,24.7,13
		C24.7,19.7,19.3,25.1,12.6,25.1z M12.6,1.9C6.5,1.9,1.5,6.9,1.5,13s5,11.1,11.1,11.1c6.1,0,11.1-5,11.1-11.1S18.7,1.9,12.6,1.9z"/>
	<path fill="red" d="M12.6,15.2c-1.7,0-3.1-1.4-3.1-3.1s1.4-3.1,3.1-3.1s3.1,1.4,3.1,3.1S14.3,15.2,12.6,15.2z M12.6,10
		c-1.2,0-2.1,1-2.1,2.1s1,2.1,2.1,2.1s2.1-1,2.1-2.1S13.8,10,12.6,10z"/>
	<path fill="red" d="M5.2,22.3l-0.8-0.4c0-0.1,1.7-5.1,8.3-5.1c6.5,0,8,5,8,5L19.9,22c-0.1-0.2-1.3-4.4-7.2-4.4
		C6.8,17.6,5.2,22.3,5.2,22.3z"/>
</g>
</svg>
