<?xml version="1.0" encoding="utf-8"?>
<!-- Generator: Adobe Illustrator 18.1.1, SVG Export Plug-In . SVG Version: 6.00 Build 0)  -->
<svg version="1.1" id="Layer_1" xmlns="http://www.w3.org/2000/svg" xmlns:xlink="http://www.w3.org/1999/xlink" x="0px" y="0px"
	 viewBox="0 0 22 22" enable-background="new 0 0 22 22" xml:space="preserve">
<g>
	<path fill="none" d="M17.6,6L6.3,6C5.7,6,4.6,6,3.9,5.3l0,13.5c0,0,0,0.4,0.4,0.8C4.6,20,5.1,20,5.8,20H18V6.5
		C18,6.1,17.6,6,17.6,6z"/>
	<path fill="#879CD6" d="M17.7,5H6.3C5.1,5,4,5.2,4,3.4C4,1.8,6,2,6.5,2H18c0.2,0,0.4-0.3,0.4-0.5S18.2,1,18,1H6.5
		c-0.6,0-1.4,0-2,0.3C3.6,1.6,3.1,2.4,3.1,3.4c0,0.2,0,0.3,0,0.5l0,14.9c0,0-0.1,0.9,0.5,1.6C4.1,20.9,4.9,21,5.8,21h12.6
		c0.2,0,0.6-0.2,0.6-0.4V6.5C19,5.7,18.3,5,17.7,5z M18,20H5.8c-0.7,0-1,0-1.4-0.4c-0.4-0.4-0.4-0.9-0.4-0.9l0-13.2
		C4.7,6.1,5.7,6,6.3,6l11.3,0c0,0,0.4,0.1,0.4,0.5V20z"/>
	<path fill="#879CD6" d="M17.7,4H5.4C5.2,4,5.1,3.8,5.1,3.7V3.4c0-0.2,0.1-0.3,0.3-0.3h12.3c0.2,0,0.3,0.1,0.3,0.3v0.3
		C18,3.8,17.9,4,17.7,4z"/>
</g>
</svg>
