<?xml version="1.0" encoding="utf-8"?>
<!-- Generator: Adobe Illustrator 18.1.1, SVG Export Plug-In . SVG Version: 6.00 Build 0)  -->
<svg version="1.1" id="Layer_1" xmlns="http://www.w3.org/2000/svg" xmlns:xlink="http://www.w3.org/1999/xlink" x="0px" y="0px"
	 viewBox="0 0 26 26" enable-background="new 0 0 26 26" xml:space="preserve">
<g>
	<path fill="none" d="M1.7,4l3,8h2C6,10,5.3,7.3,5.1,4H1.7z"/>
	<polygon fill="none" points="15.5,7.6 13.9,7.3 13.1,5.8 12.4,7.3 10.7,7.6 11.9,8.8 11.6,10.4 13.1,9.6 14.6,10.4 14.3,8.8 	"/>
	<path fill="none" d="M21.3,12l3-8h-3.4c-0.2,3.3-0.9,6-1.6,8H21.3z"/>
	<path fill="none" d="M16.2,16c0.3-0.4,1-1.5,1.8-3.3l0.3-0.7c0.8-2,1.5-4.8,1.7-8.4L20,3c0-0.3,0-0.7,0-1H6
		c0.1,8.5,3.2,13.1,3.9,14H11v4H9.1l-1,3.8l4.9,0l4.9,0L17,20h-2v-4H16.2z M13.1,10.7l-2.8,1.5l0.5-3.1L8.6,6.9l3.1-0.5l1.4-2.8
		l1.4,2.8l3.1,0.5l-2.3,2.2l0.5,3.1L13.1,10.7z"/>
	<path fill="red" d="M16.7,17l0.1-0.2c0.1-0.1,1.1-1.4,2.1-3.8h3l3.8-10H21c0-0.5,0-1,0-1.5V1H5v0.5C5,2,5,2.5,5,3H0.3L4,13h3
		c1,2.5,2.1,3.7,2.1,3.8L9.4,17H10v2H8.3l-1.5,5.8l6.2,0l6.2,0L17.7,19H16v-2H16.7z M24.3,4l-3,8h-2c0.7-2,1.4-4.7,1.6-8H24.3z
		 M4.7,12l-3-8h3.4c0.2,3.3,0.9,6,1.6,8H4.7z M17,20l1,3.8l-4.9,0l-4.9,0l1-3.8H11v-4H9.9C9.2,15.1,6.1,10.5,6,2h14.1
		c0,0.3,0,0.7,0,1l0,0.6c-0.2,3.6-0.9,6.3-1.7,8.4L18,12.7c-0.8,1.8-1.5,2.9-1.8,3.3H15v4H17z"/>
	<path fill="red" d="M15.4,9.1l2.3-2.2l-3.1-0.5l-1.4-2.8l-1.4,2.8L8.6,6.9l2.3,2.2l-0.5,3.1l2.8-1.5l2.8,1.5L15.4,9.1z
		 M13.1,9.6l-1.5,0.8l0.3-1.6l-1.2-1.2l1.7-0.2l0.7-1.5l0.7,1.5l1.7,0.2l-1.2,1.2l0.3,1.6L13.1,9.6z"/>
</g>

</svg>
