<?xml version="1.0" encoding="utf-8"?>
<!-- Generator: Adobe Illustrator 18.1.1, SVG Export Plug-In . SVG Version: 6.00 Build 0)  -->
<svg version="1.1" id="Layer_1" xmlns="http://www.w3.org/2000/svg" xmlns:xlink="http://www.w3.org/1999/xlink" x="0px" y="0px"
	 viewBox="0 0 26 26" enable-background="new 0 0 26 26" xml:space="preserve">
<g>
	<g>
		<path fill="#879CD6" d="M0.9,24V13.8c0-0.2,0.2-3.1,4.9-3.1H11c0.2,0,1.6,0,3.1,1.6l0.5,0.5l2.5-2.7c0.1-0.1,0.4-0.3,0.8-0.3
			c0.5,0,1.1,0.3,1.7,0.9c0.5,0.5,0.8,1.1,0.8,1.6c0,0.6-0.4,0.8-0.5,0.9l-5.2,5.7l-2.7-2V24L0.9,24z M11,11.8H5.8
			c-3.6,0-3.8,2-3.8,2l0,9L4,22.8v-7.6h1v7.6h6v-8.2l3.7,2.7l4.6-5c0.1-0.1,0.1-0.1,0.1-0.2c0-0.1,0-0.3-0.4-0.7
			c-0.5-0.5-0.8-0.5-0.9-0.5l-3.3,3.5l-1.4-1.3C12.2,11.8,11.1,11.8,11,11.8z"/>
	</g>
	<g>
		
			<rect x="16" y="12.3" transform="matrix(-0.7071 -0.7071 0.7071 -0.7071 20.7405 34.2803)" fill="#879CD6" width="3" height="1.1"/>
		
			<rect x="17.6" y="7.2" transform="matrix(0.6145 -0.7889 0.7889 0.6145 2.1718 19.9956)" fill="#879CD6" width="7.8" height="1.1"/>
	</g>
	<path fill="#879CD6" d="M7.9,9.2c-2,0-3.7-1.7-3.7-3.7s1.7-3.7,3.7-3.7s3.7,1.7,3.7,3.7S9.9,9.2,7.9,9.2z M7.9,3
		C6.4,3,5.3,4.1,5.3,5.5s1.1,2.6,2.6,2.6s2.6-1.1,2.6-2.6S9.3,3,7.9,3z"/>
</g>
</svg>
