<?xml version="1.0" encoding="utf-8"?>
<!-- Generator: Adobe Illustrator 18.1.1, SVG Export Plug-In . SVG Version: 6.00 Build 0)  -->
<svg version="1.1" id="Layer_1" xmlns="http://www.w3.org/2000/svg" xmlns:xlink="http://www.w3.org/1999/xlink" x="0px" y="0px"
	 viewBox="0 0 26 26" enable-background="new 0 0 26 26" xml:space="preserve">
<rect x="-9.7" y="1.7" fill="#879CD6" width="1.8" height="1.3"/>
<rect x="-6.6" y="2" fill="#FF4656" width="1.8" height="1.6"/>
<g>
	<g>
		<g>
			<path fill="#29C675" d="M13,3c5.5,0,10,4.5,10,10s-4.5,10-10,10S3,18.5,3,13S7.5,3,13,3 M13,2C6.9,2,2,6.9,2,13s4.9,11,11,11
				c6.1,0,11-4.9,11-11S19.1,2,13,2L13,2z"/>
		</g>
	</g>
	<polygon fill="#29C675" points="18.5,12.5 13.5,12.5 13.5,7.5 12.5,7.5 12.5,12.5 7.5,12.5 7.5,13.5 12.5,13.5 12.5,18.5 
		13.5,18.5 13.5,13.5 18.5,13.5 	"/>
</g>
<circle fill="#EAB51F" cx="13" cy="13" r="11"/>
<circle fill="#FFFFFF" cx="7.4" cy="12.9" r="1.5"/>
<circle fill="#FFFFFF" cx="13.1" cy="12.9" r="1.5"/>
<circle fill="#FFFFFF" cx="18.8" cy="12.9" r="1.5"/>
</svg>
